<svg width="17" height="19" viewBox="0 0 17 19" fill="none" xmlns="http://www.w3.org/2000/svg">
<path d="M11 5C10.4477 5 10 5.44772 10 6C10 6.55228 10.4477 7 11 7V5ZM16 6V7C16.5523 7 17 6.55228 17 6H16ZM17 1C17 0.447715 16.5523 0 16 0C15.4477 0 15 0.447715 15 1H17ZM11 7H16V5H11V7ZM17 6V1H15V6H17Z" fill="white"/>
<path d="M15.7094 14.3571C14.7775 15.792 13.4102 16.8904 11.8082 17.4909C10.2062 18.0915 8.45378 18.1627 6.80833 17.6939C5.16287 17.2252 3.71103 16.2413 2.66595 14.8867C1.62086 13.5321 1.03759 11.8781 1.00176 10.1675C0.965925 8.457 1.47943 6.78004 2.46687 5.38284C3.45431 3.98564 4.86368 2.94181 6.48806 2.4046C8.11244 1.86738 9.86627 1.86509 11.492 2.39805C13.1178 2.93101 14.5299 3.97114 15.521 5.36575" stroke="white" stroke-width="2" stroke-linecap="round" stroke-linejoin="round"/>
</svg>
