<svg width="24" height="16" viewBox="0 0 24 16" fill="none" xmlns="http://www.w3.org/2000/svg">
<path d="M18.9292 7.00062L17.9393 7.14213C18.0106 7.64127 18.4424 8.00922 18.9465 8.00047L18.9292 7.00062ZM5.6685 5.01082L5.73382 6.00868C6.0962 5.98496 6.41724 5.76665 6.5725 5.43836L5.6685 5.01082ZM19 16C21.7614 16 24 13.7614 24 11H22C22 12.6569 20.6569 14 19 14V16ZM24 11C24 8.23858 21.7614 6 19 6V8C20.6569 8 22 9.34315 22 11H24ZM19 6C18.9704 6 18.941 6.00026 18.9118 6.00077L18.9465 8.00047C18.9645 8.00016 18.9823 8 19 8V6ZM19.9191 6.85911C19.3648 2.98092 16.0314 0 12 0V2C15.022 2 17.5237 4.23512 17.9393 7.14213L19.9191 6.85911ZM12 0C8.80232 0 6.04484 1.87613 4.76451 4.58328L6.5725 5.43836C7.53466 3.40395 9.60438 2 12 2V0ZM5.60319 4.01295C2.47398 4.21777 0 6.81956 0 10H2C2 7.88036 3.64927 6.14512 5.73382 6.00868L5.60319 4.01295ZM0 10C0 13.3137 2.68629 16 6 16V14C3.79086 14 2 12.2091 2 10H0ZM19 14H6V16H19V14Z" fill="white"/>
<path d="M12 5V11" stroke="white" stroke-width="2" stroke-linecap="round" stroke-linejoin="round"/>
<path d="M15 9L12 11L9 9" stroke="white" stroke-width="2" stroke-linecap="round" stroke-linejoin="round"/>
</svg>
