<svg width="12" height="12" viewBox="0 0 12 12" fill="none" xmlns="http://www.w3.org/2000/svg">
<path fill-rule="evenodd" clip-rule="evenodd" d="M1.5 3.25C1.5 1.93739 1.51405 1.5 3.25 1.5C4.98595 1.5 5 1.93739 5 3.25C5 4.56261 5.00554 5 3.25 5C1.49446 5 1.5 4.56261 1.5 3.25Z" stroke="#130F26" stroke-opacity="0.75" stroke-linecap="round" stroke-linejoin="round"/>
<path opacity="0.4" fill-rule="evenodd" clip-rule="evenodd" d="M7 3.25C7 1.93739 7.01405 1.5 8.75 1.5C10.4859 1.5 10.5 1.93739 10.5 3.25C10.5 4.56261 10.5055 5 8.75 5C6.99446 5 7 4.56261 7 3.25Z" stroke="#130F26" stroke-opacity="0.75" stroke-linecap="round" stroke-linejoin="round"/>
<path fill-rule="evenodd" clip-rule="evenodd" d="M1.5 8.75C1.5 7.43739 1.51405 7 3.25 7C4.98595 7 5 7.43739 5 8.75C5 10.0626 5.00554 10.5 3.25 10.5C1.49446 10.5 1.5 10.0626 1.5 8.75Z" stroke="#130F26" stroke-opacity="0.75" stroke-linecap="round" stroke-linejoin="round"/>
<path fill-rule="evenodd" clip-rule="evenodd" d="M7 8.75C7 7.43739 7.01405 7 8.75 7C10.4859 7 10.5 7.43739 10.5 8.75C10.5 10.0626 10.5055 10.5 8.75 10.5C6.99446 10.5 7 10.0626 7 8.75Z" stroke="#130F26" stroke-opacity="0.75" stroke-linecap="round" stroke-linejoin="round"/>
</svg>
