<svg width="12" height="12" viewBox="0 0 12 12" fill="none" xmlns="http://www.w3.org/2000/svg">
<path opacity="0.4" d="M5.5 8.75H2" stroke="#130F26" stroke-opacity="0.75" stroke-linecap="round" stroke-linejoin="round"/>
<path fill-rule="evenodd" clip-rule="evenodd" d="M10 8.75C10 9.44036 9.44036 10 8.75 10C8.05964 10 7.5 9.44036 7.5 8.75C7.5 8.05913 8.05964 7.5 8.75 7.5C9.44036 7.5 10 8.05913 10 8.75Z" stroke="#130F26" stroke-opacity="0.75" stroke-linecap="round" stroke-linejoin="round"/>
<path opacity="0.4" d="M6.5 3.25H10" stroke="#130F26" stroke-opacity="0.75" stroke-linecap="round" stroke-linejoin="round"/>
<path fill-rule="evenodd" clip-rule="evenodd" d="M2 3.25C2 3.94087 2.55964 4.5 3.25 4.5C3.94036 4.5 4.5 3.94087 4.5 3.25C4.5 2.55964 3.94036 2 3.25 2C2.55964 2 2 2.55964 2 3.25Z" stroke="#130F26" stroke-opacity="0.75" stroke-linecap="round" stroke-linejoin="round"/>
</svg>
