<svg width="12" height="12" viewBox="0 0 12 12" fill="none" xmlns="http://www.w3.org/2000/svg">
<path fill-rule="evenodd" clip-rule="evenodd" d="M10.4033 3.81169L10.0921 3.27164C9.82883 2.81468 9.24535 2.65704 8.78777 2.91924V2.91924C8.56995 3.04755 8.31004 3.08395 8.06535 3.02042C7.82067 2.95689 7.6113 2.79864 7.48342 2.58056C7.40115 2.44195 7.35695 2.28408 7.35527 2.1229V2.1229C7.3627 1.86449 7.26521 1.61408 7.08501 1.42871C6.90482 1.24335 6.65727 1.13881 6.39875 1.13892H5.77175C5.51848 1.13891 5.27566 1.23984 5.097 1.41935C4.91834 1.59887 4.81859 1.84217 4.8198 2.09544V2.09544C4.8123 2.61834 4.38624 3.03828 3.86328 3.03823C3.70211 3.03656 3.54423 2.99235 3.40562 2.91008V2.91008C2.94803 2.64788 2.36456 2.80553 2.10127 3.26249L1.76717 3.81169C1.50421 4.26807 1.6597 4.85118 2.115 5.11603V5.11603C2.41095 5.2869 2.59327 5.60267 2.59327 5.94441C2.59327 6.28614 2.41095 6.60192 2.115 6.77278V6.77278C1.66028 7.03585 1.50461 7.61754 1.76717 8.07255V8.07255L2.08296 8.61718C2.20632 8.83977 2.4133 9.00403 2.6581 9.0736C2.90289 9.14317 3.16532 9.11233 3.38731 8.98789V8.98789C3.60554 8.86055 3.86559 8.82566 4.10967 8.89098C4.35375 8.95629 4.56162 9.1164 4.68708 9.33571C4.76935 9.47432 4.81355 9.6322 4.81523 9.79338V9.79338C4.81523 10.3217 5.24348 10.7499 5.77175 10.7499H6.39875C6.92524 10.7499 7.35275 10.3244 7.35527 9.79796V9.79796C7.35405 9.5439 7.45443 9.29989 7.63408 9.12024C7.81373 8.94059 8.05774 8.84021 8.3118 8.84143C8.47259 8.84574 8.62981 8.88976 8.76946 8.96958V8.96958C9.22585 9.23255 9.80896 9.07705 10.0738 8.62175V8.62175L10.4033 8.07255C10.5309 7.85363 10.5659 7.59288 10.5006 7.34806C10.4353 7.10325 10.2751 6.89456 10.0555 6.76821V6.76821C9.83588 6.64186 9.67569 6.43317 9.61041 6.18835C9.54512 5.94353 9.58013 5.68279 9.70768 5.46386C9.79062 5.31905 9.91069 5.19898 10.0555 5.11603V5.11603C10.5081 4.85132 10.6632 4.27162 10.4033 3.81626V3.81626V3.81169Z" stroke="#130F26" stroke-opacity="0.75" stroke-linecap="round" stroke-linejoin="round"/>
<circle opacity="0.4" cx="6.08749" cy="5.9443" r="1.31808" stroke="#130F26" stroke-opacity="0.75" stroke-linecap="round" stroke-linejoin="round"/>
</svg>
