<svg width="30" height="30" viewBox="0 0 30 30" fill="none" xmlns="http://www.w3.org/2000/svg">
<path d="M27.8763 14.5775L27.9732 14.4468C29.211 12.7855 29.4898 11.0273 28.7898 9.22251C28.0898 7.41767 26.7132 6.28717 24.7065 5.89167L24.5525 5.86134L24.5327 5.70617C24.5093 5.52067 24.4895 5.33517 24.4708 5.15084C24.4402 4.76772 24.3849 4.38699 24.3052 4.011C24.0546 2.98663 23.5013 2.06147 22.7174 1.35603C21.9335 0.650588 20.9554 0.197575 19.9103 0.056C19.8554 0.0469694 19.8017 0.0312992 19.7505 0.00933333H19.7412H18.7052L18.4228 0.0653333C18.2012 0.1085 17.9923 0.149333 17.787 0.207667C16.6361 0.526398 15.6285 1.22858 14.931 2.198C14.8855 2.261 14.8388 2.32283 14.7922 2.38467C14.7655 2.41619 14.7314 2.44064 14.693 2.45583L14.5203 2.55617L14.3675 2.37767C14.336 2.3415 14.3022 2.30417 14.273 2.261C13.3548 0.997501 12.1205 0.253167 10.6062 0.0443333C10.5541 0.0364573 10.5029 0.0235639 10.4533 0.00583325L10.4382 0H9.40334C9.24584 0.0431667 9.086 0.0828334 8.92617 0.116667C8.57365 0.192919 8.22764 0.296681 7.89133 0.427C5.87417 1.28917 4.6445 3.18967 4.67833 5.40284C4.67833 5.45534 4.67833 5.50667 4.67833 5.56734V5.83917L4.37383 5.90567L4.10083 5.96634C3.05635 6.20956 2.10995 6.76323 1.38612 7.55454C0.662284 8.34584 0.194919 9.33771 0.0455002 10.3997C0.0368412 10.4538 0.0215599 10.5067 0 10.5572V10.5677V11.6608L0.0525001 11.9105C0.0933334 12.103 0.134167 12.3002 0.1855 12.4938C0.378287 13.1982 0.713845 13.8554 1.17133 14.4247L1.26817 14.5413L1.183 14.6732C1.12817 14.7583 1.06633 14.8435 1.01617 14.9275C0.8995 15.1095 0.782834 15.2775 0.676667 15.463C0.347704 16.0383 0.134477 16.6725 0.049 17.3297C0.0403105 17.3846 0.0250338 17.4383 0.00350008 17.4895V17.4988V18.5908C0.0245001 18.6842 0.0443334 18.7787 0.0630001 18.872C0.102946 19.0826 0.153961 19.291 0.215833 19.4962C0.847 21.4958 2.20967 22.7442 4.25133 23.2132L4.29567 23.2225C4.34117 23.233 4.3855 23.2423 4.42983 23.2552C4.46188 23.2641 4.49281 23.2766 4.522 23.2925L4.63867 23.352L4.65383 23.492C4.676 26.2302 5.8835 28.0292 8.24367 28.8389C10.6318 29.6555 12.7015 28.9614 14.3932 26.7622L14.5647 26.5394L14.7373 26.7622C16.4768 29.001 18.5873 29.6789 21.0152 28.7945C23.2972 27.9569 24.4615 26.1719 24.4778 23.4862V23.3077L24.654 23.2727C26.6758 22.8772 28.0607 21.756 28.7677 19.957C29.4747 18.158 29.204 16.387 27.9662 14.707L27.8763 14.5775ZM13.9207 11.8207C13.9207 12.7493 13.9207 13.678 13.9207 14.6067V17.325C13.9207 19.4903 13.9207 21.6561 13.9207 23.8222C13.9254 24.3651 13.8203 24.9034 13.6116 25.4047C13.4028 25.9059 13.0949 26.3597 12.7062 26.7389C11.9549 27.4628 10.9494 27.8629 9.90617 27.853H9.76967C9.24425 27.8272 8.72908 27.698 8.25365 27.4728C7.77821 27.2477 7.35183 26.931 6.9989 26.5409C6.64597 26.1508 6.37343 25.6949 6.19685 25.1994C6.02027 24.7039 5.94313 24.1784 5.96983 23.653C5.96816 23.5401 6.00835 23.4305 6.08267 23.3454C6.15699 23.2603 6.26017 23.2057 6.37233 23.1922C7.31849 22.9925 8.19031 22.5332 8.89 21.8657C9.2225 21.5542 9.26567 21.154 8.99967 20.8705C8.73367 20.587 8.3475 20.6127 8.015 20.909C6.47617 22.2752 4.39833 22.3907 2.84667 21.1972C2.39437 20.8511 2.02189 20.4117 1.75458 19.9088C1.48726 19.4059 1.33136 18.8514 1.29749 18.2828C1.26362 17.7143 1.35257 17.1452 1.55828 16.6141C1.764 16.0831 2.08166 15.6025 2.48967 15.2052C2.74517 14.9543 2.86417 14.756 2.86417 14.581C2.86417 14.406 2.7475 14.2065 2.4885 13.9545C2.10885 13.5967 1.80339 13.1676 1.58957 12.6917C1.37575 12.2159 1.25775 11.7025 1.24232 11.1811C1.21114 10.1279 1.5996 9.1055 2.32225 8.33876C3.0449 7.57201 4.04254 7.12375 5.09569 7.09257C6.14885 7.06139 7.17126 7.44986 7.938 8.17251C8.07896 8.30664 8.2479 8.40784 8.43267 8.46884C8.56421 8.50185 8.70314 8.48799 8.82557 8.42965C8.948 8.3713 9.04628 8.27213 9.1035 8.14917C9.17164 8.01867 9.19397 7.86905 9.16689 7.72434C9.13981 7.57962 9.06489 7.4482 8.95417 7.35117C8.26983 6.66865 7.4042 6.19657 6.45983 5.99084C6.03633 5.901 5.9745 5.63034 5.96983 5.376C5.95974 4.84503 6.05531 4.31734 6.25099 3.82363C6.44667 3.32993 6.73855 2.88005 7.10967 2.50017C7.46686 2.12822 7.89441 1.83097 8.36748 1.62568C8.84055 1.42039 9.34969 1.31116 9.86534 1.30433C10.3934 1.29299 10.9183 1.38722 11.4095 1.58148C11.9006 1.77574 12.348 2.06612 12.7254 2.4356C13.1028 2.80507 13.4026 3.2462 13.6073 3.73309C13.8119 4.21999 13.9173 4.74285 13.9172 5.271C13.923 7.45734 13.9218 9.67517 13.9207 11.8207ZM26.6128 15.1725C27.1874 15.7207 27.5842 16.4288 27.7519 17.2051C27.9195 17.9813 27.8503 18.79 27.5532 19.5265C27.2644 20.2597 26.7613 20.8888 26.1094 21.3315C25.4575 21.7742 24.6872 22.01 23.8992 22.008H23.8222C23.2913 22.008 23.0533 22.2892 23.0183 22.5412C23.0081 22.6878 23.0215 22.8351 23.058 22.9775C23.3893 24.5945 22.9028 25.9782 21.658 26.9792C20.9078 27.58 20.0947 27.8822 19.2535 27.8822C18.6421 27.8755 18.0402 27.7304 17.493 27.4575C16.0428 26.7575 15.2577 25.522 15.2227 23.8735C15.2098 23.2773 15.2133 22.6917 15.2168 22.071C15.2168 21.7926 15.2168 21.5098 15.2168 21.2228V21.0058H15.8597C16.3193 21.0058 16.7522 21.0058 17.1932 21.0163C17.4183 21.0233 17.5677 21.2917 17.5957 21.3442C18.0763 22.2775 18.7997 22.7337 19.8053 22.7337C20.972 22.7337 21.9462 21.8552 22.1282 20.643C22.2927 19.5498 21.5682 18.4263 20.4785 18.0868C19.9408 17.9103 19.3573 17.9353 18.8366 18.157C18.3159 18.3787 17.8936 18.7821 17.6482 19.292C17.5968 19.4314 17.4994 19.5492 17.3722 19.6259C17.245 19.7027 17.0955 19.7339 16.9482 19.7143C16.5982 19.7027 16.2598 19.705 15.8982 19.7073H15.4467H15.2285V15.2262H16.6087C17.5245 15.2262 18.4403 15.2262 19.3562 15.2262C19.4758 15.2137 19.5961 15.2413 19.6983 15.3046C19.8006 15.368 19.8788 15.4635 19.9208 15.5762C20.1593 16.1101 20.5883 16.536 21.124 16.7705C21.6597 17.005 22.2636 17.0314 22.8177 16.8443C23.3609 16.6624 23.8208 16.2914 24.1135 15.7989C24.4062 15.3064 24.5123 14.7252 24.4125 14.161C24.3128 13.5909 24.007 13.0773 23.5534 12.7179C23.0997 12.3585 22.5298 12.1782 21.952 12.2115C21.0338 12.2652 20.3443 12.7318 19.9033 13.5987C19.8368 13.7293 19.67 13.9253 19.467 13.9277C18.3353 13.937 17.1862 13.9347 16.0732 13.9277H15.5097C15.4602 13.9266 15.4119 13.9125 15.3697 13.8868L15.3557 13.8798L15.2285 13.8215V9.45584H15.8445C16.2983 9.45584 16.7685 9.45584 17.2317 9.46634C17.3728 9.46634 17.4953 9.58301 17.6027 9.80701C17.7706 10.1612 18.0218 10.4693 18.335 10.705C18.6481 10.9407 19.0137 11.097 19.4005 11.1603C19.7747 11.2217 20.1583 11.1901 20.5174 11.0682C20.8765 10.9464 21.2001 10.738 21.4597 10.4615C22.1737 9.71601 22.344 8.86084 21.9672 7.91934C21.5903 6.97784 20.8763 6.47617 19.8765 6.43067C18.8767 6.38517 18.1207 6.8285 17.6458 7.749C17.493 8.05584 17.29 8.1725 16.9703 8.1585C16.6203 8.14334 16.2645 8.14684 15.9203 8.14917H15.4887H15.393L15.3277 8.071C15.2988 8.04618 15.2754 8.01563 15.2589 7.98129C15.2424 7.94695 15.2333 7.90957 15.232 7.87151C15.2413 7.5215 15.232 7.15751 15.232 6.8075C15.2227 6.00834 15.2133 5.18117 15.358 4.3855C15.4492 3.8895 15.6412 3.41749 15.9221 2.99868C16.2031 2.57986 16.567 2.22317 16.9913 1.95067C17.6546 1.5155 18.4326 1.28815 19.2258 1.29773C20.019 1.3073 20.7913 1.55337 21.4438 2.00443C22.0963 2.45549 22.5994 3.09101 22.8886 3.82966C23.1779 4.5683 23.2401 5.37646 23.0673 6.15067C22.9903 6.48784 23.0148 6.734 23.142 6.89617C23.2692 7.05834 23.499 7.1295 23.835 7.1295H23.8478C24.645 7.12138 25.4262 7.35366 26.0894 7.79606C26.7527 8.23846 27.2672 8.87045 27.5659 9.60961C27.8647 10.3488 27.9337 11.1608 27.7641 11.9398C27.5945 12.7188 27.1942 13.4286 26.6152 13.9767C26.3877 14.196 26.2768 14.3897 26.2768 14.5682C26.2768 14.7467 26.3818 14.9508 26.6128 15.1725ZM18.6795 20.349C18.6852 20.0644 18.8009 19.793 19.0023 19.5918C19.2037 19.3906 19.4752 19.2752 19.7598 19.2698C20.0473 19.2669 20.3241 19.3783 20.5295 19.5795C20.7348 19.7806 20.8518 20.0551 20.8548 20.3426C20.8577 20.63 20.7463 20.9069 20.5451 21.1122C20.344 21.3176 20.0695 21.4346 19.782 21.4375H19.7598C19.4723 21.4345 19.1975 21.3185 18.9948 21.1146C18.792 20.9108 18.6775 20.6354 18.676 20.3478L18.6795 20.349ZM20.993 14.5553C20.9966 14.2679 21.1142 13.9936 21.3199 13.7929C21.4218 13.6935 21.5423 13.6151 21.6745 13.5623C21.8066 13.5095 21.9479 13.4832 22.0903 13.4849C22.2326 13.4867 22.3732 13.5165 22.504 13.5726C22.6348 13.6287 22.7533 13.71 22.8527 13.8119C22.9521 13.9137 23.0305 14.0342 23.0833 14.1664C23.1361 14.2986 23.1624 14.4398 23.1607 14.5822C23.155 14.8667 23.0393 15.138 22.8378 15.339C22.6364 15.54 22.3649 15.6551 22.0803 15.6602C21.9365 15.659 21.7943 15.6294 21.6619 15.5731C21.5295 15.5168 21.4095 15.4349 21.3088 15.3322C21.2081 15.2294 21.1287 15.1078 21.0751 14.9743C21.0215 14.8408 20.9948 14.698 20.9965 14.5542L20.993 14.5553ZM18.6818 8.77684C18.6864 8.56368 18.7538 8.35661 18.8755 8.18154C18.9972 8.00648 19.1678 7.87119 19.366 7.79262C19.5642 7.71405 19.7812 7.69569 19.9898 7.73982C20.1984 7.78396 20.3893 7.88863 20.5387 8.04075C20.6881 8.19287 20.7893 8.38567 20.8297 8.59502C20.87 8.80438 20.8477 9.02098 20.7656 9.21773C20.6834 9.41448 20.5451 9.58264 20.3679 9.70115C20.1906 9.81966 19.9824 9.88327 19.7692 9.88401C19.6252 9.88279 19.4829 9.85315 19.3504 9.79679C19.218 9.74043 19.0979 9.65846 18.9972 9.55559C18.8965 9.45272 18.8171 9.33096 18.7636 9.19732C18.7101 9.06368 18.6835 8.92079 18.6853 8.77684H18.6818Z" fill="#2ABB9C"/>
</svg>
