<svg width="619" height="401" viewBox="0 0 619 401" fill="none" xmlns="http://www.w3.org/2000/svg">
<path opacity="0.1" d="M28.5417 239.118C10.4028 241.944 14.2383 244.226 3 249.845V400.541H616V131.332C616 131.332 599.104 168.137 585.861 166.579C565.359 164.168 574.275 145.778 553.678 147.168C538.364 148.201 535.799 196.934 513.833 195.697C486.085 194.133 496.984 169.904 469.391 166.579C450.013 164.244 450.589 128.773 431.078 128.267C400.936 127.485 396.695 98.484 370.8 96.0843C309.686 90.4208 365.653 -0.635152 304.392 3.11255C244.611 6.76967 311.343 153.401 251.776 147.168C236.774 145.598 230.449 131.823 215.507 133.886C197.053 136.434 198.577 161.107 180.77 166.579C157.493 173.733 145.312 142.011 121.513 147.168C98.7153 152.107 99.8869 186.437 76.56 186.502C45.1459 186.589 59.5814 234.281 28.5417 239.118Z" fill="url(#paint0_linear_3_821)"/>
<path d="M3 249.845C14.2383 244.226 10.4028 241.944 28.5417 239.118C59.5814 234.281 45.1459 186.589 76.56 186.502C99.8869 186.437 98.7153 152.107 121.513 147.168C145.312 142.011 157.493 173.733 180.77 166.579C198.577 161.107 197.053 136.434 215.507 133.886C230.449 131.823 236.774 145.598 251.776 147.168C311.343 153.401 244.611 6.76967 304.392 3.11255C365.653 -0.635152 309.686 90.4208 370.8 96.0843C396.695 98.484 400.936 127.485 431.078 128.267C450.589 128.773 450.013 164.244 469.391 166.579C496.984 169.904 486.085 194.133 513.833 195.697C535.799 196.934 538.364 148.201 553.678 147.168C574.275 145.778 565.359 164.168 585.861 166.579C599.104 168.137 616 131.332 616 131.332" stroke="url(#paint1_linear_3_821)" stroke-width="5" stroke-linecap="round"/>
<path opacity="0.5" d="M342.193 38.8711H434.143V400.541H342.193V38.8711Z" fill="url(#paint2_linear_3_821)"/>
<g filter="url(#filter0_d_3_821)">
<circle cx="388.168" cy="100.171" r="20.4333" fill="white"/>
<circle cx="388.168" cy="100.171" r="14.9333" stroke="url(#paint3_linear_3_821)" stroke-width="11"/>
</g>
<path opacity="0.5" d="M39.0283 385.118C40.6865 385.118 41.665 384.14 41.665 382.476V376.522H40.3525V382.464C40.3525 383.431 39.8837 383.946 39.0166 383.946C38.2314 383.946 37.8271 383.442 37.7744 382.798L37.7685 382.745H36.4736L36.4795 382.815C36.5498 384.163 37.4638 385.118 39.0283 385.118ZM42.4502 384.978H43.8271L44.6064 382.692H47.8642L48.6377 384.978H50.0146L46.9443 376.522H45.5263L42.4502 384.978ZM46.2236 377.923H46.247L47.5068 381.638H44.958L46.2236 377.923ZM50.9521 384.978H52.2529V378.714H52.288L56.6416 384.978H57.8486V376.522H56.5478V382.774H56.5127L52.165 376.522H50.9521V384.978Z" fill="#454459"/>
<path d="M375.446 384.978H376.811V378.966H376.852L379.289 384.978H380.315L382.752 378.966H382.799V384.978H384.158V376.522H382.412L379.822 382.979H379.781L377.192 376.522H375.446V384.978ZM385.067 384.978H386.649L387.364 382.792H390.51L391.225 384.978H392.813L389.789 376.522H388.09L385.067 384.978ZM388.922 378.028H388.957L390.129 381.626H387.744L388.922 378.028ZM394.957 384.978H396.463V381.644L399.428 376.522H397.776L395.731 380.202H395.69L393.645 376.522H391.992L394.957 381.644V384.978Z" fill="#454459"/>
<path opacity="0.5" d="M121.216 384.978H122.529V381.438H126.162V380.331H122.529V377.653H126.496V376.522H121.216V384.978ZM127.638 384.978H133.005V383.847H128.951V381.222H132.788V380.12H128.951V377.653H133.005V376.522H127.638V384.978ZM134.353 384.978H137.746C139.544 384.978 140.628 384.075 140.628 382.593V382.581C140.628 381.468 139.849 380.642 138.648 380.519V380.495C139.538 380.366 140.212 379.54 140.212 378.649V378.638C140.212 377.36 139.228 376.522 137.728 376.522H134.353V384.978ZM137.412 377.595C138.361 377.595 138.906 378.022 138.906 378.796V378.808C138.906 379.657 138.279 380.126 137.119 380.126H135.665V377.595H137.412ZM137.388 381.14C138.642 381.14 139.287 381.608 139.287 382.517V382.528C139.287 383.431 138.654 383.905 137.476 383.905H135.665V381.14H137.388Z" fill="#454459"/>
<path opacity="0.5" d="M207.188 384.978H208.383V378.737H208.424L210.973 384.978H211.946L214.494 378.737H214.535V384.978H215.731V376.522H214.219L211.477 383.272H211.442L208.705 376.522H207.188V384.978ZM216.662 384.978H218.039L218.819 382.692H222.076L222.85 384.978H224.227L221.157 376.522H219.739L216.662 384.978ZM220.436 377.923H220.459L221.719 381.638H219.17L220.436 377.923ZM225.164 384.978H226.477V381.731H228.282L230.004 384.978H231.516L229.623 381.532C230.637 381.187 231.264 380.272 231.264 379.124V379.112C231.264 377.524 230.174 376.522 228.446 376.522H225.164V384.978ZM226.477 380.653V377.624H228.282C229.289 377.624 229.91 378.187 229.91 379.124V379.136C229.91 380.097 229.33 380.653 228.317 380.653H226.477Z" fill="#454459"/>
<path d="M391.84 350.036C391.84 349.784 391.735 349.585 391.6 349.31L388.02 341.915C387.768 341.394 387.504 341.2 387.147 341.2C386.79 341.2 386.526 341.394 386.268 341.915L382.694 349.31C382.559 349.591 382.454 349.79 382.454 350.036C382.454 350.511 382.811 350.839 383.385 350.839L390.909 350.833C391.477 350.833 391.84 350.505 391.84 350.036Z" fill="white"/>
<path d="M391.84 280.562C391.84 280.311 391.735 280.111 391.6 279.836L388.02 272.441C387.768 271.92 387.504 271.727 387.147 271.727C386.79 271.727 386.526 271.92 386.268 272.441L382.694 279.836C382.559 280.117 382.454 280.316 382.454 280.562C382.454 281.037 382.811 281.365 383.385 281.365L390.909 281.359C391.477 281.359 391.84 281.031 391.84 280.562Z" fill="white"/>
<path d="M391.84 211.089C391.84 210.837 391.735 210.638 391.6 210.362L388.02 202.968C387.768 202.446 387.504 202.253 387.147 202.253C386.79 202.253 386.526 202.446 386.268 202.968L382.694 210.362C382.559 210.644 382.454 210.843 382.454 211.089C382.454 211.563 382.811 211.892 383.385 211.892L390.909 211.886C391.477 211.886 391.84 211.558 391.84 211.089Z" fill="white"/>
<path d="M391.84 315.299C391.84 315.047 391.735 314.848 391.6 314.572L388.02 307.178C387.768 306.656 387.504 306.463 387.147 306.463C386.79 306.463 386.526 306.656 386.268 307.178L382.694 314.572C382.559 314.854 382.454 315.053 382.454 315.299C382.454 315.773 382.811 316.102 383.385 316.102L390.909 316.096C391.477 316.096 391.84 315.768 391.84 315.299Z" fill="white"/>
<path d="M391.84 245.826C391.84 245.574 391.735 245.375 391.6 245.1L388.02 237.705C387.768 237.184 387.504 236.99 387.147 236.99C386.79 236.99 386.526 237.184 386.268 237.705L382.694 245.1C382.559 245.381 382.454 245.58 382.454 245.826C382.454 246.301 382.811 246.629 383.385 246.629L390.909 246.623C391.477 246.623 391.84 246.295 391.84 245.826Z" fill="white"/>
<path d="M391.84 176.353C391.84 176.101 391.735 175.901 391.6 175.626L388.02 168.231C387.768 167.71 387.504 167.517 387.147 167.517C386.79 167.517 386.526 167.71 386.268 168.231L382.694 175.626C382.559 175.907 382.454 176.106 382.454 176.353C382.454 176.827 382.811 177.155 383.385 177.155L390.909 177.149C391.477 177.149 391.84 176.821 391.84 176.353Z" fill="white"/>
<path d="M391.84 141.616C391.84 141.364 391.735 141.165 391.6 140.89L388.02 133.495C387.768 132.974 387.504 132.78 387.147 132.78C386.79 132.78 386.526 132.974 386.268 133.495L382.694 140.89C382.559 141.171 382.454 141.37 382.454 141.616C382.454 142.091 382.811 142.419 383.385 142.419L390.909 142.413C391.477 142.413 391.84 142.085 391.84 141.616Z" fill="white"/>
<path opacity="0.5" d="M466.25 385.118C467.909 385.118 468.887 384.14 468.887 382.476V376.522H467.575V382.464C467.575 383.431 467.106 383.946 466.239 383.946C465.453 383.946 465.049 383.442 464.996 382.798L464.991 382.745H463.696L463.702 382.815C463.772 384.163 464.686 385.118 466.25 385.118ZM473.891 385.118C476.018 385.118 477.307 383.858 477.307 382.007V376.522H476V381.901C476 383.132 475.239 383.958 473.891 383.958C472.543 383.958 471.776 383.132 471.776 381.901V376.522H470.463V382.007C470.463 383.858 471.77 385.118 473.891 385.118ZM478.866 384.978H480.166V378.714H480.202L484.555 384.978H485.762V376.522H484.461V382.774H484.426L480.078 376.522H478.866V384.978Z" fill="#454459"/>
<path opacity="0.5" d="M290.816 384.978H292.193L292.972 382.692H296.23L297.004 384.978H298.381L295.31 376.522H293.892L290.816 384.978ZM294.59 377.923H294.613L295.873 381.638H293.324L294.59 377.923ZM299.318 384.978H300.631V382.089H302.465C304.123 382.089 305.271 380.958 305.271 379.306V379.294C305.271 377.636 304.123 376.522 302.465 376.522H299.318V384.978ZM302.136 377.63C303.279 377.63 303.935 378.245 303.935 379.3V379.312C303.935 380.372 303.279 380.987 302.136 380.987H300.631V377.63H302.136ZM306.42 384.978H307.732V381.731H309.537L311.26 384.978H312.771L310.879 381.532C311.892 381.187 312.519 380.272 312.519 379.124V379.112C312.519 377.524 311.429 376.522 309.701 376.522H306.42V384.978ZM307.732 380.653V377.624H309.537C310.545 377.624 311.166 378.187 311.166 379.124V379.136C311.166 380.097 310.586 380.653 309.572 380.653H307.732Z" fill="#454459"/>
<path opacity="0.5" d="M551.581 385.118C553.239 385.118 554.217 384.14 554.217 382.476V376.522H552.905V382.464C552.905 383.431 552.436 383.946 551.569 383.946C550.784 383.946 550.38 383.442 550.327 382.798L550.321 382.745H549.026L549.032 382.815C549.102 384.163 550.016 385.118 551.581 385.118ZM559.221 385.118C561.348 385.118 562.637 383.858 562.637 382.007V376.522H561.331V381.901C561.331 383.132 560.569 383.958 559.221 383.958C557.874 383.958 557.106 383.132 557.106 381.901V376.522H555.794V382.007C555.794 383.858 557.1 385.118 559.221 385.118ZM564.196 384.978H569.446V383.847H565.508V376.522H564.196V384.978Z" fill="#454459"/>
<defs>
<filter id="filter0_d_3_821" x="342.735" y="59.7373" width="90.8667" height="90.8662" filterUnits="userSpaceOnUse" color-interpolation-filters="sRGB">
<feFlood flood-opacity="0" result="BackgroundImageFix"/>
<feColorMatrix in="SourceAlpha" type="matrix" values="0 0 0 0 0 0 0 0 0 0 0 0 0 0 0 0 0 0 127 0" result="hardAlpha"/>
<feOffset dy="5"/>
<feGaussianBlur stdDeviation="12.5"/>
<feColorMatrix type="matrix" values="0 0 0 0 0 0 0 0 0 0 0 0 0 0 0 0 0 0 0.1 0"/>
<feBlend mode="normal" in2="BackgroundImageFix" result="effect1_dropShadow_3_821"/>
<feBlend mode="normal" in="SourceGraphic" in2="effect1_dropShadow_3_821" result="shape"/>
</filter>
<linearGradient id="paint0_linear_3_821" x1="309.5" y1="3" x2="309.5" y2="400.541" gradientUnits="userSpaceOnUse">
<stop stop-color="#FE6C6C"/>
<stop offset="1" stop-color="#FE464B" stop-opacity="0"/>
</linearGradient>
<linearGradient id="paint1_linear_3_821" x1="309.5" y1="3" x2="309.5" y2="249.845" gradientUnits="userSpaceOnUse">
<stop stop-color="#FE6C6C"/>
<stop offset="1" stop-color="#FE464B"/>
</linearGradient>
<linearGradient id="paint2_linear_3_821" x1="388.168" y1="38.8711" x2="388.168" y2="400.541" gradientUnits="userSpaceOnUse">
<stop offset="0.0104167" stop-color="#FE6C6C" stop-opacity="0"/>
<stop offset="0.28125" stop-color="#FE6C6C"/>
<stop offset="0.666667" stop-color="#FE464B"/>
<stop offset="0.984375" stop-color="#FE464B" stop-opacity="0"/>
</linearGradient>
<linearGradient id="paint3_linear_3_821" x1="388.168" y1="79.7373" x2="388.168" y2="120.604" gradientUnits="userSpaceOnUse">
<stop stop-color="#FE6C6C"/>
<stop offset="1" stop-color="#FE464B"/>
</linearGradient>
</defs>
</svg>
