<svg width="35" height="35" viewBox="0 0 35 35" fill="none" xmlns="http://www.w3.org/2000/svg">
<g clip-path="url(#clip0_3_1112)">
<path d="M21.703 0.516143C31.0855 2.83713 36.8044 12.3231 34.4833 21.7028C32.1623 31.0824 22.6778 36.8038 13.297 34.4828C3.91626 32.1618 -1.80525 22.6767 0.516677 13.2953C2.83861 3.91387 12.3231 -1.80661 21.703 0.516143Z" fill="#F1F2F2"/>
<path d="M33.987 11.6398C33.0199 8.91407 31.3913 6.47098 29.2474 4.52969C27.1034 2.5884 24.5111 1.20962 21.703 0.516992C12.8885 -1.66574 3.9783 3.25627 1.01385 11.6398H33.987Z" fill="#00A94F"/>
<path d="M33.9764 23.3877H1.02362C1.99377 26.1071 3.62258 28.5438 5.76449 30.48C7.9064 32.4161 10.4947 33.7915 13.2979 34.483C17.507 35.5249 21.953 34.9666 25.7738 32.9166C29.5947 30.8665 32.5181 27.4708 33.9773 23.3877" fill="#EF3827"/>
</g>
<defs>
<clipPath id="clip0_3_1112">
<rect width="35" height="35" fill="white"/>
</clipPath>
</defs>
</svg>
