<svg width="28" height="28" viewBox="0 0 28 28" fill="none" xmlns="http://www.w3.org/2000/svg">
<path fill-rule="evenodd" clip-rule="evenodd" d="M8.94248 4.08301C5.99081 4.08301 4.08331 6.10484 4.08331 9.23501V18.7643C4.08331 21.8945 5.99081 23.9163 8.94248 23.9163H19.0551C22.008 23.9163 23.9166 21.8945 23.9166 18.7643V9.23501C23.9166 6.10484 22.008 4.08301 19.0563 4.08301H8.94248ZM19.0551 25.6663H8.94248C4.98865 25.6663 2.33331 22.892 2.33331 18.7643V9.23501C2.33331 5.10734 4.98865 2.33301 8.94248 2.33301H19.0563C23.0101 2.33301 25.6666 5.10734 25.6666 9.23501V18.7643C25.6666 22.892 23.0101 25.6663 19.0551 25.6663Z" fill="#2ABB9C"/>
<path fill-rule="evenodd" clip-rule="evenodd" d="M12.6157 17.6432C12.3929 17.6432 12.1677 17.558 11.9974 17.3865L9.22775 14.618C8.88592 14.2762 8.88592 13.7232 9.22775 13.3813C9.56958 13.0395 10.1226 13.0395 10.4644 13.3813L12.6157 15.5303L17.5344 10.6128C17.8762 10.271 18.4292 10.271 18.7711 10.6128C19.1129 10.9547 19.1129 11.5077 18.7711 11.8495L13.2341 17.3865C13.0637 17.558 12.8397 17.6432 12.6157 17.6432Z" fill="#2ABB9C"/>
</svg>
