<svg width="35" height="35" viewBox="0 0 35 35" fill="none" xmlns="http://www.w3.org/2000/svg">
<g clip-path="url(#clip0_3_1102)">
<path d="M0.516221 13.2963C2.83721 3.91467 12.3241 -1.80509 21.7029 0.516843C31.0816 2.83877 36.8039 12.3224 34.4829 21.7031C32.1619 31.0839 22.6768 36.8054 13.2963 34.4835C3.91572 32.1616 -1.80654 22.6771 0.516221 13.2963Z" fill="#F1F2F2"/>
<path d="M33.6822 10.8458H20.1285V13.5249H34.5427C34.3283 12.6102 34.0406 11.7143 33.6822 10.8458ZM30.226 5.48587H20.132V8.16672H32.3033C31.6988 7.20828 31.0031 6.31048 30.226 5.48587ZM4.86706 29.6029H30.1427C30.9314 28.7813 31.6373 27.8839 32.2501 26.9238H2.7632C3.37572 27.8831 4.08034 28.7804 4.86706 29.6029ZM21.7051 0.515868C21.1795 0.385591 20.654 0.282796 20.1294 0.202148V2.80678H27.0081C25.3798 1.75424 23.5876 0.98003 21.7051 0.515868ZM34.953 16.2022H20.1294V18.883H34.9442C35.0161 17.991 35.0193 17.0947 34.9539 16.2022M1.35767 24.243H33.6476C33.9909 23.4182 34.2709 22.5685 34.4851 21.7013C34.4966 21.6543 34.5064 21.6082 34.517 21.5621H0.479431C0.699076 22.4778 0.99218 23.3744 1.35589 24.243M13.2967 34.4808C14.3143 34.7327 15.3523 34.8935 16.3984 34.9611H18.6255C21.552 34.7719 24.3839 33.85 26.861 32.2802H8.13452C9.72608 33.2871 11.4699 34.0302 13.2985 34.4808" fill="#EF3827"/>
<path d="M18.8018 17.9031L18.4234 17.6275L18.045 17.9031L18.1895 17.46L17.8119 17.1844H18.2781L18.4234 16.7413L18.567 17.1844H19.0349L18.6574 17.46L18.8018 17.9031ZM16.9408 3.80227L17.0844 4.24539L16.7068 3.96977L16.3284 4.24539L16.4729 3.80227L16.0945 3.52931H16.5615L16.7068 3.08619L16.8513 3.52931H17.3192L16.9408 3.80227ZM16.9408 7.8302L17.0844 8.27331L16.7068 7.9977L16.3284 8.27331L16.4729 7.8302L16.0945 7.55458H16.5615L16.7068 7.11146L16.8513 7.55458H17.3192L16.9408 7.8302ZM16.9062 11.7775L17.0498 12.2206L16.6714 11.945L16.2939 12.2206L16.4374 11.7775L16.059 11.5019H16.5269L16.6714 11.0587L16.815 11.5019H17.2829L16.9062 11.7775ZM17.0152 16.12L16.6368 15.8435L16.2593 16.12L16.4029 15.6769L16.0245 15.4013H16.4924L16.6368 14.9582L16.7804 15.4013H17.2492L16.8699 15.6769L17.0152 16.12ZM15.1542 5.7511L15.3004 6.19422L14.9229 5.92125L14.5427 6.19422L14.6881 5.7511L14.3105 5.47548H14.7775L14.9229 5.03237L15.0656 5.47548H15.5326L15.1542 5.7511ZM15.1542 9.65052L15.3004 10.0936L14.9229 9.81891L14.5427 10.0936L14.6881 9.65052L14.3105 9.37491H14.7775L14.9229 8.93179L15.0656 9.37491H15.5326L15.1542 9.65052ZM15.1542 13.6386L15.3004 14.0817L14.9229 13.8061L14.5427 14.0817L14.6881 13.6386L14.3105 13.3656H14.7775L14.9229 12.9225L15.0656 13.3656H15.5326L15.1542 13.6386ZM15.3004 17.8925L14.9229 17.6169L14.5427 17.8925L14.6881 17.4494L14.3105 17.1738H14.7775L14.9229 16.7306L15.0656 17.1738H15.5326L15.1542 17.4494L15.3004 17.8925ZM13.4394 3.79164L13.5847 4.23476L13.2063 3.95913L12.827 4.23476L12.9723 3.79164L12.5948 3.51867H13.0618L13.2063 3.07556L13.3508 3.51867H13.8187L13.4394 3.79164ZM13.4394 7.81956L13.5847 8.26268L13.2063 7.98706L12.827 8.26268L12.9723 7.81956L12.5948 7.54395H13.0618L13.2063 7.10083L13.3508 7.54395H13.8187L13.4394 7.81956ZM13.4066 11.7668L13.5501 12.21L13.1717 11.9343L12.7942 12.21L12.9387 11.7668L12.5594 11.4912H13.0264L13.1717 11.0481L13.3153 11.4912H13.7841L13.4066 11.7668ZM13.5147 16.1094L13.1372 15.8329L12.7588 16.1094L12.9023 15.6663L12.5248 15.3907H12.9918L13.1372 14.9475L13.2816 15.3907H13.7487L13.3711 15.6663L13.5147 16.1094ZM11.6537 1.84104L11.7981 2.28416L11.4206 2.00942L11.0413 2.28416L11.1857 1.84104L10.8082 1.56542H11.2761L11.4206 1.12231L11.5642 1.56542H12.033L11.6537 1.84104ZM11.6537 5.74046L11.7981 6.18358L11.4206 5.91061L11.0413 6.18358L11.1857 5.74046L10.8082 5.46485H11.2761L11.4206 5.02173L11.5642 5.46485H12.033L11.6537 5.74046ZM11.6537 9.63989L11.7981 10.083L11.4206 9.80826L11.0413 10.083L11.1857 9.63989L10.8082 9.36427H11.2761L11.4206 8.92116L11.5642 9.36427H12.033L11.6537 9.63989ZM11.6537 13.6279L11.7981 14.0711L11.4206 13.7954L11.0413 14.0711L11.1857 13.6279L10.8082 13.355H11.2761L11.4206 12.9119L11.5642 13.355H12.033L11.6537 13.6279ZM11.7981 17.8819L11.4206 17.6062L11.0413 17.8819L11.1857 17.4387L10.8082 17.1631H11.2761L11.4206 16.72L11.5642 17.1631H12.033L11.6537 17.4387L11.7981 17.8819ZM9.93707 3.64009L10.0833 4.0832L9.70312 3.80759L9.32559 4.0832L9.47093 3.64009L9.09163 3.36713H9.55867L9.70312 2.92401L9.84845 3.36713H10.3146L9.93707 3.64009ZM9.93707 7.66891L10.0833 8.11202L9.70312 7.83906L9.32559 8.11202L9.47093 7.66891L9.09163 7.39328H9.55867L9.70312 6.95016L9.84845 7.39328H10.3146L9.93707 7.66891ZM9.90163 11.6162L10.047 12.0593L9.66944 11.7828L9.28925 12.0593L9.43459 11.6162L9.05707 11.3406H9.5241L9.66944 10.8974L9.81212 11.3406H10.28L9.90163 11.6162ZM10.0124 15.9632L9.63399 15.6875L9.25646 15.9632L9.40003 15.52L9.02162 15.2471H9.48865L9.63399 14.804L9.77756 15.2471H10.2464L9.86884 15.52L10.0124 15.9632ZM8.15136 5.73248L8.2967 6.1756L7.91918 5.90264L7.53899 6.1756L7.68433 5.73248L7.3068 5.45686H7.77295L7.91918 5.01375L8.06185 5.45686H8.52889L8.15136 5.73248ZM8.15136 9.63191L8.2967 10.075L7.91918 9.80029L7.53899 10.075L7.68433 9.63191L7.3068 9.35629H7.77295L7.91918 8.91317L8.06185 9.35629H8.52889L8.15136 9.63191ZM8.15136 13.62L8.2967 14.0631L7.91918 13.7875L7.53899 14.0631L7.68433 13.62L7.3068 13.347H7.77295L7.91918 12.9039L8.06185 13.347H8.52889L8.15136 13.62ZM8.2967 17.8739L7.91918 17.5983L7.53899 17.8739L7.68433 17.4308L7.3068 17.1551H7.77295L7.91918 16.712L8.06185 17.1551H8.52889L8.15136 17.4308L8.2967 17.8739ZM6.43566 7.62282L6.57923 8.06594L6.2017 7.79032L5.82329 8.06594L5.96863 7.62282L5.58932 7.34721H6.05725L6.2017 6.90409L6.34526 7.34721H6.81406L6.43566 7.62282ZM6.4011 11.5692L6.54466 12.0123L6.16714 11.7367L5.78872 12.0123L5.93229 11.5692L5.55476 11.2936H6.0218L6.16714 10.8505L6.30981 11.2936H6.77862L6.4011 11.5692ZM6.50921 15.9118L6.13169 15.6361L5.75416 15.9118L5.89772 15.4686L5.51931 15.193H5.98723L6.13169 14.7499L6.27702 15.193H6.74406L6.36476 15.4686L6.50921 15.9118ZM14.7678 1.54503L14.9131 1.10191L15.0558 1.54503H15.5229L15.1444 1.82066L15.2907 2.26377L14.9131 1.98903L14.533 2.26377L14.6783 1.82066L14.3008 1.54503H14.7678ZM18.2648 13.3426L18.4101 12.8994L18.5537 13.3426H19.0216L18.6441 13.6155L18.7885 14.0586L18.4101 13.783L18.0317 14.0586L18.1762 13.6155L17.7986 13.3426H18.2648ZM18.2648 9.35451L18.4101 8.9114L18.5537 9.35451H19.0216L18.6441 9.63014L18.7885 10.0733L18.4101 9.79852L18.0317 10.0733L18.1762 9.63014L17.7986 9.35451H18.2648ZM18.2648 5.45066L18.4101 5.00755L18.5537 5.45066H19.0216L18.6441 5.72628L18.7885 6.1694L18.4101 5.89644L18.0317 6.1694L18.1762 5.72628L17.7986 5.45066H18.2648ZM18.2648 1.55124L18.4101 1.10812L18.5537 1.55124H19.0216L18.6441 1.82686L18.7885 2.26997L18.4101 1.99524L18.0317 2.26997L18.1762 1.82686L17.7986 1.55124H18.2648ZM4.65172 9.63191L4.79617 10.075L4.41776 9.80029L4.04023 10.075L4.1838 9.63191L3.80538 9.35629H4.27153L4.41776 8.91317L4.56132 9.35629H5.03012L4.65172 9.63191ZM4.65172 13.62L4.79617 14.0631L4.41776 13.7875L4.04023 14.0631L4.1838 13.62L3.80538 13.347H4.27153L4.41776 12.9039L4.56132 13.347H5.03012L4.65172 13.62ZM4.79617 17.8739L4.41687 17.5983L4.04023 17.8739L4.1838 17.4308L3.8045 17.1551H4.27153L4.41687 16.712L4.56132 17.1551H5.03012L4.65172 17.4308L4.79617 17.8739ZM2.90056 11.501L3.0459 11.9441L2.66749 11.6694L2.28908 11.9441L2.43353 11.501L2.05512 11.2254H2.52304L2.66749 10.7822L2.81283 11.2254H3.27897L2.90056 11.501ZM3.01134 15.8435L2.63381 15.5679L2.25363 15.8435L2.39985 15.4004L2.02144 15.1248H2.48848L2.63381 14.6817L2.77649 15.1248H3.2453L2.866 15.4004L3.01134 15.8435ZM1.2974 17.8721L0.919876 17.5965L0.540586 17.8721L0.685039 17.429L0.307512 17.1534H0.775423L0.919876 16.7102L1.06522 17.1534H1.53048L1.15295 17.429L1.2974 17.8721ZM20.1152 0.171369C19.9433 0.144782 18.6671 0.00475836 18.4961 -0.015625L15.3509 0.0995896C12.1151 0.501271 9.05523 1.79664 6.51452 3.84038L6.57923 4.03889L6.41527 3.91925C5.83536 4.39306 5.28628 4.90338 4.77135 5.44712H5.03012L4.65172 5.72273L4.79617 6.16585L4.41776 5.89289L4.26621 6.0019C3.91172 6.40779 3.57733 6.83141 3.26302 7.27275H3.31531L3.20542 7.35252C3.1292 7.46064 3.05299 7.56965 2.97944 7.67954L3.08046 7.99237L2.8722 7.84172C1.78027 9.50164 0.979193 11.3355 0.503361 13.2646L0.484754 13.3426H0.775423L0.919876 12.8994L1.06522 13.3426H1.53048L1.15295 13.6155L1.2974 14.0586L0.919876 13.783L0.540586 14.0586L0.685039 13.6155L0.459051 13.4525C0.0386234 15.2277 -0.10161 17.0577 0.0434232 18.8762H20.1152V0.171369Z" fill="#223C72"/>
</g>
<defs>
<clipPath id="clip0_3_1102">
<rect width="35" height="35" fill="white"/>
</clipPath>
</defs>
</svg>
